<?xml version="1.0" standalone="no"?>
<!DOCTYPE svg PUBLIC "-//W3C//DTD SVG 20010904//EN"
 "http://www.w3.org/TR/2001/REC-SVG-20010904/DTD/svg10.dtd">
<svg version="1.0" xmlns="http://www.w3.org/2000/svg"
 width="2700.000000pt" height="1414.000000pt" viewBox="0 0 2700.000000 1414.000000"
 preserveAspectRatio="xMidYMid meet">

<g transform="translate(0.000000,1414.000000) scale(0.100000,-0.100000)"
fill="#000000" stroke="none">
<path d="M7224 8886 c-3 -8 -4 -25 -2 -38 3 -21 8 -23 53 -23 l50 0 3 -607 2
-607 -217 -3 c-215 -3 -219 -3 -275 -31 -115 -57 -214 -190 -239 -321 -6 -34
-9 -268 -7 -623 l3 -568 23 -58 c30 -74 104 -171 164 -217 82 -61 124 -73 297
-78 176 -5 217 3 256 49 14 18 27 30 29 28 2 -2 11 -21 19 -41 l16 -38 215 0
216 0 0 40 0 40 -50 0 -49 0 -18 53 c-17 49 -18 144 -21 1555 l-3 1502 -230 0
c-190 0 -231 -2 -235 -14z m36 -1374 c70 -70 71 -83 68 -897 -3 -667 -4 -713
-22 -753 -30 -69 -54 -82 -157 -82 -84 0 -90 1 -123 30 -21 19 -42 51 -53 83
-17 48 -18 103 -18 782 0 773 0 770 47 830 29 37 51 44 142 44 78 1 79 1 116
-37z"/>
<path d="M1866 8882 c5 -5 38 -20 74 -33 46 -16 79 -37 112 -70 82 -82 78 -28
78 -1066 l0 -913 -45 0 c-45 0 -45 0 -45 -35 0 -35 0 -35 43 -35 l44 0 7 -466
c3 -256 4 -470 1 -475 -4 -5 -26 -9 -51 -9 -44 0 -44 0 -44 -35 l0 -35 250 0
250 0 0 38 0 38 -50 -3 -50 -3 0 475 0 475 280 0 280 0 -2 -472 -3 -473 -47
-3 c-47 -3 -48 -4 -48 -38 l0 -34 245 0 245 0 0 35 c0 21 -5 36 -12 36 -7 1
-26 2 -43 3 l-30 1 -3 1267 -2 1267 42 3 c42 3 43 4 43 38 l0 35 -250 0 -250
0 0 -35 c0 -33 2 -35 40 -40 37 -5 40 -7 47 -45 16 -90 28 -509 28 -977 l0
-498 -279 0 -280 0 -4 738 c-5 772 -6 799 -52 972 -39 148 -129 281 -223 329
-23 12 -67 28 -99 36 -61 16 -214 21 -197 7z"/>
<path d="M13145 8873 c2 -10 4 -26 4 -35 1 -15 10 -18 51 -18 l50 0 0 -604 0
-605 -213 -3 -213 -3 -66 -33 c-116 -57 -212 -187 -238 -321 -6 -32 -10 -267
-10 -590 0 -591 1 -598 62 -713 44 -84 127 -164 207 -202 l66 -31 182 0 182 0
39 38 39 38 17 -40 16 -41 215 0 215 0 0 40 0 40 -49 0 -48 0 -17 58 c-14 53
-16 201 -16 1550 l0 1492 -239 0 c-222 0 -239 -1 -236 -17z m15 -1338 c18 -9
39 -36 57 -72 l28 -58 3 -724 c2 -507 -1 -740 -8 -778 -8 -35 -23 -67 -42 -89
l-30 -34 -93 0 c-85 0 -96 2 -124 25 -16 14 -40 52 -53 83 l-23 57 0 730 0
730 24 54 c33 73 65 91 159 91 45 0 84 -6 102 -15z"/>
<path d="M9210 8390 c-54 -9 -110 -32 -150 -60 l-29 -21 -38 25 c-76 50 -110
56 -334 56 -184 0 -214 -2 -261 -20 -110 -41 -209 -147 -253 -270 -19 -53 -20
-93 -25 -1350 -6 -1411 -4 -1355 -62 -1432 -30 -40 -48 -49 -153 -82 l-80 -25
175 2 c172 3 176 3 234 32 101 51 181 144 222 260 16 47 18 133 18 1360 1
1235 2 1313 19 1356 10 25 31 59 48 75 29 28 35 29 119 29 84 0 90 -1 119 -29
17 -16 38 -50 48 -75 17 -43 18 -120 21 -1278 l2 -1233 191 0 191 0 -4 1228
c-3 1147 -2 1231 15 1284 11 37 28 65 48 82 27 23 39 26 106 26 115 0 157 -37
182 -160 7 -38 12 -423 13 -1220 l3 -1165 -45 -5 c-43 -5 -46 -7 -45 -35 l0
-30 275 0 275 0 3 32 c3 31 3 32 -45 35 l-48 3 -5 1120 -5 1120 -23 56 c-70
173 -193 286 -341 310 -66 10 -316 10 -381 -1z"/>
<path d="M14600 8356 c0 -34 1 -35 42 -38 37 -3 42 -6 54 -39 6 -20 19 -78 28
-129 14 -82 16 -234 16 -1232 l0 -1138 -50 0 -50 0 0 -35 0 -35 270 0 270 0 0
34 c0 34 -1 35 -47 38 l-48 3 -3 467 -2 467 207 3 c197 3 211 4 258 28 114 56
219 203 246 345 18 95 5 882 -15 958 -25 91 -64 157 -135 228 -111 111 -100
109 -611 109 l-430 0 0 -34z m768 -61 c56 -47 63 -89 74 -420 5 -165 7 -444 6
-620 -4 -349 -9 -378 -65 -437 -25 -27 -31 -28 -119 -28 -91 0 -93 1 -118 30
-60 72 -60 70 -64 818 l-3 682 130 0 c124 0 131 -1 159 -25z"/>
<path d="M19060 8337 c-91 -28 -168 -56 -172 -61 -5 -6 -8 -155 -7 -331 l0
-320 -48 -5 c-47 -5 -48 -6 -48 -40 0 -34 1 -35 48 -40 l48 -5 -1 -690 c0
-762 1 -772 62 -888 45 -84 141 -180 214 -215 57 -26 66 -27 234 -29 l175 -3
-95 30 c-103 32 -134 50 -167 100 -48 69 -47 61 -51 903 l-3 797 136 0 135 0
0 40 0 40 -117 2 c-65 0 -125 1 -133 2 -13 1 -15 52 -18 384 -2 296 -5 382
-15 381 -6 0 -86 -24 -177 -52z"/>
<path d="M10399 8357 c-55 -36 -69 -76 -69 -195 0 -117 12 -155 59 -195 30
-25 40 -27 119 -27 150 0 182 38 182 217 0 124 -14 163 -69 200 -28 19 -48 23
-111 23 -63 0 -83 -4 -111 -23z"/>
<path d="M4010 7606 c-83 -18 -146 -54 -206 -119 -66 -71 -101 -137 -120 -226
-17 -81 -20 -1065 -4 -1171 23 -143 122 -280 250 -343 l65 -32 230 0 c229 0
230 0 288 27 81 38 169 126 211 209 41 83 58 174 54 299 l-3 95 -177 3 -178 2
0 -167 c0 -186 -11 -276 -40 -334 -31 -60 -51 -69 -158 -69 -89 0 -95 1 -122
28 -57 58 -63 100 -68 500 l-4 362 371 0 c290 0 371 3 371 13 4 275 -1 552
-10 591 -38 169 -174 306 -334 335 -78 14 -346 13 -416 -3z m341 -95 c24 -26
41 -57 49 -88 7 -29 14 -176 17 -365 l5 -318 -196 0 -196 0 0 293 c0 303 7
383 41 449 27 54 59 67 158 68 l84 0 38 -39z"/>
<path d="M5420 7604 c-149 -40 -270 -175 -305 -341 -8 -38 -15 -116 -15 -175
l0 -108 179 0 179 0 4 218 c5 240 13 279 70 327 27 23 38 25 118 25 80 0 91
-2 118 -25 52 -44 64 -96 72 -330 5 -159 4 -215 -5 -230 -8 -12 -70 -44 -156
-79 -223 -92 -393 -182 -448 -235 -87 -86 -121 -196 -121 -401 0 -145 16 -227
61 -311 40 -74 132 -162 206 -196 53 -25 71 -27 215 -31 189 -5 217 -1 257 40
l31 31 15 -36 15 -37 173 0 c96 0 176 2 179 5 3 3 -6 36 -20 73 l-25 67 -8
660 c-5 365 -13 691 -19 729 -27 175 -151 318 -315 360 -80 21 -376 21 -455 0z
m428 -1216 c-4 -514 -5 -523 -60 -577 -31 -30 -35 -31 -123 -31 -103 0 -124 9
-154 68 -34 67 -41 146 -41 477 0 361 -4 341 79 394 48 31 278 141 294 141 4
0 6 -213 5 -472z"/>
<path d="M10240 7585 l0 -35 55 0 55 0 -2 -882 -3 -883 -48 -3 c-48 -3 -48 -4
-45 -35 l3 -32 273 -3 272 -2 0 35 0 35 -50 0 -50 0 0 920 0 920 -230 0 -230
0 0 -35z"/>
<path d="M10947 7613 c-4 -3 -7 -19 -7 -35 0 -27 2 -28 49 -28 l48 0 14 -47
c11 -39 14 -203 14 -883 l0 -835 -45 -1 c-44 -1 -45 -1 -45 -35 l0 -34 275 0
c256 0 275 1 274 18 -1 9 -2 25 -3 35 -1 14 -9 17 -46 14 l-46 -4 3 823 c3
814 3 825 24 869 35 74 53 85 153 88 71 2 91 0 117 -17 37 -23 70 -86 84 -160
6 -34 10 -357 10 -862 l0 -809 226 0 225 0 -3 38 c-3 37 -3 37 -48 37 l-45 0
-5 745 c-5 735 -5 746 -27 798 -63 155 -169 251 -311 281 -67 14 -309 14 -349
1 -16 -6 -40 -25 -53 -42 l-24 -32 -17 42 -18 42 -209 0 c-115 0 -212 -3 -215
-7z"/>
<path d="M16450 7610 c-145 -31 -283 -173 -319 -331 -6 -24 -11 -101 -11 -171
l0 -128 180 0 180 0 -7 148 c-10 237 20 372 89 408 17 9 58 14 107 14 71 0 83
-3 110 -25 59 -50 73 -115 79 -345 4 -192 3 -206 -15 -222 -10 -9 -99 -51
-198 -93 -363 -153 -446 -216 -496 -374 -29 -93 -28 -385 1 -472 50 -148 161
-259 295 -294 40 -10 105 -15 202 -15 154 0 201 10 225 49 17 28 22 27 37 -14
l12 -35 181 0 c149 0 179 2 175 14 -47 121 -48 132 -53 596 -9 883 -11 920
-29 980 -39 126 -127 228 -243 283 l-67 32 -195 2 c-107 1 -215 -2 -240 -7z
m414 -1162 c7 -425 2 -527 -30 -595 -29 -61 -55 -73 -156 -73 -88 0 -91 1
-123 33 -61 61 -67 101 -72 482 l-5 341 27 33 c16 18 47 45 69 59 36 22 261
129 277 131 3 1 9 -185 13 -411z"/>
<path d="M17520 7580 l0 -40 45 0 45 0 0 -880 0 -880 -45 0 c-45 0 -45 0 -45
-35 l0 -35 270 0 270 0 0 35 c0 35 0 35 -45 35 l-45 0 0 806 c0 558 3 812 11
826 13 25 84 57 125 58 39 0 79 -38 95 -89 6 -20 14 -120 16 -223 l5 -188 174
0 174 0 -2 268 -3 267 -48 32 c-70 47 -105 54 -267 60 l-145 4 -77 -39 -77
-39 -3 46 -3 46 -212 3 -213 2 0 -40z"/>
<path d="M19620 7585 l0 -35 48 0 c80 0 76 49 80 -923 l3 -849 -38 2 c-61 3
-63 2 -63 -35 l0 -35 275 0 275 0 0 38 c0 37 0 37 -42 37 l-43 0 0 815 c0 757
1 818 18 861 30 77 55 93 151 97 97 5 133 -9 165 -61 51 -82 51 -91 51 -969
l0 -818 225 0 225 0 0 38 0 37 -47 0 -48 0 -5 745 -5 745 -23 56 c-30 75 -93
161 -148 204 -79 60 -141 77 -296 83 -182 6 -219 0 -260 -44 l-33 -35 -17 41
-17 40 -216 0 -215 0 0 -35z"/>
<path d="M22490 7580 l0 -40 45 0 45 0 0 -874 0 -875 -42 -3 c-42 -3 -43 -4
-43 -38 l0 -35 270 0 270 0 0 35 c0 35 0 35 -47 38 l-48 3 0 803 0 803 25 27
c48 52 130 64 171 25 40 -37 53 -106 56 -298 2 -131 6 -175 16 -178 7 -3 87
-2 177 2 l164 7 -2 260 -2 259 -25 20 c-48 39 -125 67 -217 80 -139 18 -211 9
-305 -39 l-78 -40 0 49 0 49 -215 0 -215 0 0 -40z"/>
<path d="M24160 7613 c-143 -24 -260 -113 -324 -248 -49 -101 -61 -163 -60
-305 0 -110 4 -135 28 -205 15 -43 47 -110 72 -147 83 -124 174 -189 448 -315
278 -129 313 -166 304 -327 -11 -192 -111 -286 -304 -286 -40 0 -85 5 -99 12
-56 25 -89 139 -97 333 l-3 60 -170 0 -170 0 0 -190 0 -189 40 -28 c75 -52
144 -63 400 -63 198 0 238 3 285 19 197 67 313 240 341 508 23 231 -43 403
-198 509 -52 36 -171 96 -286 143 -274 113 -358 186 -388 339 -23 112 25 220
125 282 44 27 58 30 150 33 98 4 103 3 133 -22 17 -14 38 -44 46 -65 18 -44
37 -178 37 -258 l0 -53 168 2 167 3 3 177 2 176 -40 34 c-45 39 -83 53 -185
68 -67 9 -373 12 -425 3z"/>
<path d="M21449 7587 c-124 -52 -207 -146 -255 -287 -18 -51 -19 -95 -19 -625
0 -526 1 -575 19 -638 35 -128 124 -233 245 -291 l66 -31 220 0 c207 0 224 2
278 24 84 33 177 124 222 215 44 89 56 157 53 288 l-3 103 -177 3 -178 2 0
-167 c0 -186 -11 -276 -41 -334 -27 -54 -62 -69 -158 -69 -71 0 -83 3 -111 26
-67 57 -80 147 -80 561 l0 303 374 0 375 0 -3 288 c-2 260 -4 293 -23 349 -41
123 -125 221 -233 272 -54 25 -60 26 -285 29 -222 2 -232 1 -286 -21z m391
-62 c65 -59 80 -155 80 -516 l0 -269 -196 0 -195 0 3 328 c5 367 9 395 75 453
35 30 37 31 123 27 71 -2 92 -7 110 -23z"/>
</g>
</svg>
