<?xml version="1.0" standalone="no"?>
<!DOCTYPE svg PUBLIC "-//W3C//DTD SVG 20010904//EN"
 "http://www.w3.org/TR/2001/REC-SVG-20010904/DTD/svg10.dtd">
<svg version="1.0" xmlns="http://www.w3.org/2000/svg"
 width="355.000000pt" height="142.000000pt" viewBox="0 0 355.000000 142.000000"
 preserveAspectRatio="xMidYMid meet">

<g transform="translate(0.000000,142.000000) scale(0.100000,-0.100000)"
fill="#000000" stroke="none">
<path d="M0 1375 l0 -45 345 0 345 0 0 45 0 45 -345 0 -345 0 0 -45z"/>
<path d="M790 1376 l0 -46 481 0 c529 0 521 -1 396 56 l-62 29 -407 3 -408 3
0 -45z"/>
<path d="M1970 1375 l0 -45 295 0 294 0 -17 45 -16 45 -278 0 -278 0 0 -45z"/>
<path d="M2979 1375 l-17 -45 289 0 289 0 0 45 0 45 -273 0 -272 0 -16 -45z"/>
<path d="M0 1185 l0 -45 345 0 345 0 0 45 0 45 -345 0 -345 0 0 -45z"/>
<path d="M790 1185 l0 -45 545 0 c368 0 545 3 545 10 0 6 -7 26 -14 45 l-15
35 -530 0 -531 0 0 -45z"/>
<path d="M1970 1185 l0 -45 325 0 c179 0 325 3 325 6 0 4 -5 24 -12 45 l-11
39 -314 0 -313 0 0 -45z"/>
<path d="M2914 1195 c-7 -19 -14 -39 -14 -45 0 -7 107 -10 320 -10 l320 0 0
45 0 45 -306 0 -305 0 -15 -35z"/>
<path d="M200 995 l0 -45 150 0 150 0 0 45 0 45 -150 0 -150 0 0 -45z"/>
<path d="M990 995 l0 -45 145 0 145 0 0 45 0 45 -145 0 -145 0 0 -45z"/>
<path d="M1580 995 l0 -45 149 0 149 0 6 31 c12 62 19 59 -149 59 l-155 0 0
-45z"/>
<path d="M2170 995 l0 -45 261 0 260 0 -7 23 c-23 74 5 67 -269 67 l-245 0 0
-45z"/>
<path d="M2851 1018 c-5 -13 -11 -33 -15 -45 l-7 -23 260 0 261 0 0 45 0 45
-245 0 c-245 0 -245 0 -254 -22z"/>
<path d="M200 805 l0 -45 150 0 150 0 0 45 0 45 -150 0 -150 0 0 -45z"/>
<path d="M990 805 l0 -45 383 0 383 0 25 28 c62 68 98 62 -370 62 l-421 0 0
-45z"/>
<path d="M2170 805 l0 -45 145 0 145 0 1 28 1 27 11 -27 11 -28 273 0 273 0
12 28 12 27 4 -27 3 -28 145 0 144 0 0 45 0 45 -279 0 -279 0 -15 -42 -14 -43
-18 43 -17 42 -279 0 -279 0 0 -45z"/>
<path d="M200 615 l0 -45 150 0 150 0 0 45 0 45 -150 0 -150 0 0 -45z"/>
<path d="M990 615 l0 -45 421 0 c468 0 432 -6 370 63 l-25 27 -383 0 -383 0 0
-45z"/>
<path d="M2170 615 l0 -45 145 0 145 0 0 45 0 45 -145 0 -145 0 0 -45z"/>
<path d="M2539 615 l16 -45 205 0 205 0 16 45 17 45 -238 0 -238 0 17 -45z"/>
<path d="M3060 615 l0 -45 145 0 145 0 0 45 0 45 -145 0 -145 0 0 -45z"/>
<path d="M200 425 l0 -45 150 0 150 0 0 45 0 45 -150 0 -150 0 0 -45z"/>
<path d="M990 425 l0 -45 145 0 145 0 0 45 0 45 -145 0 -145 0 0 -45z"/>
<path d="M1580 425 l0 -45 155 0 c168 0 161 -3 149 59 l-6 31 -149 0 -149 0 0
-45z"/>
<path d="M2170 425 l0 -45 145 0 145 0 0 45 0 45 -145 0 -145 0 0 -45z"/>
<path d="M2608 425 l16 -45 137 0 137 0 15 45 16 45 -169 0 -169 0 17 -45z"/>
<path d="M3060 425 l0 -45 145 0 145 0 0 45 0 45 -145 0 -145 0 0 -45z"/>
<path d="M10 235 l0 -45 340 0 340 0 0 45 0 45 -340 0 -340 0 0 -45z"/>
<path d="M790 235 l0 -45 531 0 530 0 15 35 c7 19 14 39 14 45 0 7 -177 10
-545 10 l-545 0 0 -45z"/>
<path d="M1978 235 l4 -45 239 0 239 0 0 45 0 45 -243 0 -242 0 3 -45z"/>
<path d="M2677 235 l15 -45 68 0 68 0 16 40 c9 22 16 43 16 45 0 3 -45 5 -99
5 l-100 0 16 -45z"/>
<path d="M3060 235 l0 -45 245 0 245 0 0 45 0 45 -245 0 -245 0 0 -45z"/>
<path d="M10 48 l0 -48 340 0 340 0 0 45 0 44 -340 3 -340 3 0 -47z"/>
<path d="M790 47 l0 -48 408 3 407 3 62 29 c34 15 69 36 77 45 13 15 -22 16
-470 16 l-484 0 0 -48z"/>
<path d="M2218 93 l-238 -3 0 -45 0 -45 240 0 240 0 0 50 c0 28 -1 49 -2 48
-2 -2 -110 -4 -240 -5z"/>
<path d="M2730 89 c0 -3 7 -24 16 -45 l17 -39 13 35 c17 48 18 47 -16 52 -16
3 -30 1 -30 -3z"/>
<path d="M3060 48 l0 -48 245 0 245 0 0 45 0 44 -245 3 -245 3 0 -47z"/>
</g>
</svg>
