<?xml version="1.0" standalone="no"?>
<!DOCTYPE svg PUBLIC "-//W3C//DTD SVG 20010904//EN"
 "http://www.w3.org/TR/2001/REC-SVG-20010904/DTD/svg10.dtd">
<svg version="1.0" xmlns="http://www.w3.org/2000/svg"
 width="470.000000pt" height="107.000000pt" viewBox="0 0 470.000000 107.000000"
 preserveAspectRatio="xMidYMid meet">

<g transform="translate(0.000000,107.000000) scale(0.100000,-0.100000)"
fill="#000000" stroke="none">
<path d="M4400 990 l0 -80 -95 0 -95 0 0 -100 0 -100 50 0 50 0 0 -75 0 -75
95 0 95 0 0 95 0 95 -50 0 -50 0 0 60 0 60 55 0 55 0 0 -55 0 -55 49 0 c26 0
69 -3 95 -6 l46 -7 0 102 0 101 -50 0 -50 0 0 60 0 60 -100 0 -100 0 0 -80z"/>
<path d="M2945 708 c-3 -7 -4 -135 -3 -283 l3 -270 23 -3 c22 -3 22 -2 22 125
0 117 2 131 21 152 44 48 112 54 158 15 l31 -26 0 -134 0 -134 25 0 25 0 0
131 c0 151 -11 188 -65 213 -42 20 -121 20 -159 1 -15 -8 -30 -15 -32 -15 -2
0 -5 53 -6 117 -3 103 -5 118 -21 121 -9 2 -19 -3 -22 -10z"/>
<path d="M72 663 c-41 -20 -62 -59 -62 -117 0 -59 39 -105 125 -145 85 -40
115 -74 115 -128 0 -76 -75 -109 -181 -79 -73 20 -69 20 -69 -4 0 -28 40 -42
125 -44 83 -1 119 14 153 64 19 28 23 44 19 79 -7 62 -32 90 -122 138 -94 49
-125 81 -125 129 0 75 82 103 198 68 21 -6 23 -4 20 17 -2 15 -12 26 -28 30
-47 13 -134 9 -168 -8z"/>
<path d="M3317 623 c-4 -3 -7 -15 -7 -25 0 -13 8 -18 30 -18 25 0 30 4 30 25
0 20 -5 25 -23 25 -13 0 -27 -3 -30 -7z"/>
<path d="M1103 603 c-8 -3 -13 -23 -13 -53 0 -46 -2 -49 -27 -52 -39 -4 -43
-36 -6 -40 l28 -3 5 -130 c3 -72 9 -138 14 -147 25 -54 184 -39 163 16 -5 12
-12 12 -51 -2 -42 -15 -46 -15 -65 2 -19 17 -21 30 -21 143 l0 123 66 0 c57 0
65 2 62 18 -3 14 -16 18 -66 20 l-62 3 0 49 c0 50 -6 61 -27 53z"/>
<path d="M2697 604 c-4 -4 -7 -29 -7 -55 0 -45 -2 -48 -27 -51 -39 -4 -39 -42
-1 -46 l26 -3 4 -130 c3 -129 3 -131 31 -155 42 -36 138 -29 154 12 10 28 -11
36 -51 19 -35 -15 -40 -15 -62 0 -23 15 -24 20 -24 135 l0 119 63 3 c54 3 62
5 62 23 0 18 -8 20 -62 23 l-62 3 -3 52 c-2 37 -7 53 -18 55 -9 1 -19 0 -23
-4z"/>
<path d="M316 502 c-3 -5 26 -85 65 -178 l71 -168 -35 -72 c-20 -40 -33 -75
-30 -78 24 -24 43 6 146 227 124 267 128 277 99 277 -15 0 -27 -13 -42 -47
-80 -187 -106 -243 -111 -243 -4 0 -33 64 -66 143 -56 132 -80 166 -97 139z"/>
<path d="M780 503 c-35 -13 -50 -37 -50 -78 0 -49 30 -83 100 -113 59 -25 84
-54 76 -85 -9 -37 -57 -53 -112 -39 -59 16 -64 15 -64 -8 0 -14 11 -22 38 -29
51 -15 76 -14 119 4 46 20 62 41 63 86 0 45 -30 79 -96 108 -26 12 -56 29 -66
38 -21 19 -24 53 -6 71 14 14 71 16 116 3 27 -8 34 -7 39 6 10 26 -25 43 -86
42 -31 0 -63 -3 -71 -6z"/>
<path d="M1420 491 c-49 -26 -80 -83 -80 -150 0 -149 85 -223 220 -191 53 13
74 29 65 53 -5 13 -13 12 -56 -4 -62 -24 -86 -24 -126 1 -35 21 -47 39 -58 88
l-7 32 85 0 c46 0 105 3 131 6 44 6 46 8 46 38 -1 48 -34 113 -69 130 -40 21
-109 20 -151 -3z m133 -33 c19 -15 49 -83 40 -92 -4 -3 -53 -6 -111 -6 -91 0
-103 2 -98 16 3 9 6 20 6 26 0 5 14 23 31 39 24 22 41 29 73 29 23 0 50 -6 59
-12z"/>
<path d="M1720 340 c0 -93 0 -173 0 -177 -1 -5 8 -9 20 -11 19 -3 20 1 20 123
l0 127 34 34 c42 42 85 46 121 9 24 -23 25 -29 25 -160 l0 -135 25 0 25 0 0
130 c0 125 1 132 24 155 29 28 66 40 102 31 41 -11 54 -58 54 -196 0 -113 1
-120 20 -120 19 0 20 7 20 140 0 79 -5 149 -11 163 -27 59 -127 76 -192 32
l-37 -26 -22 21 c-13 11 -33 23 -46 27 -35 8 -101 -3 -122 -22 -16 -15 -18
-14 -23 5 -3 11 -12 20 -21 20 -14 0 -16 -21 -16 -170z"/>
<path d="M2355 495 c-22 -8 -41 -15 -42 -15 -5 0 -3 -50 1 -50 2 0 23 9 47 20
84 38 149 18 149 -46 l0 -34 -52 0 c-115 0 -168 -37 -168 -116 0 -95 102 -145
183 -90 45 31 45 31 43 9 0 -12 7 -19 22 -21 22 -3 22 -3 22 148 l0 152 -29
29 c-25 25 -37 29 -83 29 -29 -1 -71 -7 -93 -15z m155 -191 c0 -92 -99 -154
-155 -98 -21 21 -19 77 3 96 25 22 40 26 100 27 50 1 52 0 52 -25z"/>
<path d="M3320 330 c0 -173 1 -180 20 -180 19 0 20 7 20 180 0 173 -1 180 -20
180 -19 0 -20 -7 -20 -180z"/>
<path d="M3512 490 c-53 -32 -72 -74 -72 -158 0 -98 24 -146 87 -174 35 -15
59 -19 97 -15 64 6 106 25 106 47 0 27 -7 28 -66 8 -101 -34 -164 4 -180 110
-9 60 18 127 59 148 30 16 53 15 145 -2 28 -5 32 -4 32 15 0 28 -35 41 -113
41 -44 0 -71 -6 -95 -20z"/>
<path d="M3845 498 c-32 -17 -45 -39 -45 -74 0 -45 33 -80 110 -118 54 -26 66
-36 68 -59 2 -16 -1 -34 -8 -41 -17 -22 -68 -27 -113 -11 -55 19 -57 19 -57
-10 0 -19 7 -26 38 -34 129 -36 230 38 180 132 -15 29 -34 44 -88 68 -25 11
-53 28 -62 36 -25 22 -23 60 3 74 21 11 85 7 122 -7 25 -9 35 25 12 42 -23 17
-131 18 -160 2z"/>
</g>
</svg>
